<svg xmlns="http://www.w3.org/2000/svg" xmlns:xlink="http://www.w3.org/1999/xlink" version="1.1" id="Layer_1" x="0px" y="0px" viewBox="0 0 434 80" style="enable-background:new 0 0 434 80;" xml:space="preserve" class="logo-img svg replaced-svg" preserveAspectRatio="xMinYMin" focusable="false"><style type="text/css">
	.st0{fill:#fff;}
</style><g><path class="st0" d="M415.31,79.28h16.59L399.15,1.3l-15.96,0.02c0.94,2.68-0.7,7.88-2.46,12.42l-26.31,65.54h9.24l11.61-28.46   h28.46L415.31,79.28z M377.92,44.3l11.58-28.4l11.57,28.4H377.92z"/><path class="st0" d="M147.89,42.51h33.47v-5.59h-33.47V6.89h37.87V1.3L129.9,1.32c0,0,1.68,2.95,1.68,11.1V79.3h55.23v-5.58h-38.93   V42.51z"/><path class="st0" d="M54.34,36.92H19.89V1.32H1.9c0,0,1.68,2.95,1.68,11.1V79.3h16.31V43.18h34.45V79.3h16.31V1.32H54.34V36.92z"/><path class="st0" d="M282.01,40.81c3.46-1.1,7.02-2.74,10.39-5.25c12.05-9,9.04-24.34,1.06-29.42c-5.14-3.27-10.22-4.84-20.3-4.84   h-31.92c0,0,1.68,2.95,1.68,11.1v66.88h16.35V42.84h4.31c0.24,0,0.52,0,0.83,0.01c4.85,0.32,7.5,1.75,11.63,7.09l20.29,29.34h16.61   c0,0-21.68-30.13-23.48-32.46C287.92,44.81,285.47,41.85,282.01,40.81 M263.01,37.33h-3.74V6.75h3.52c5.76,0,14.18,0.07,18.5,6.51   c4.11,6.13,2.74,13.29-0.29,17.38C277.25,35.72,273.05,37.33,263.01,37.33"/></g></svg>